<svg width="46" height="46" fill="none" xmlns="http://www.w3.org/2000/svg"><g clip-path="url(#glassmag_a)"><path d="M30.188 20.125a10.063 10.063 0 1 1-20.127 0 10.063 10.063 0 0 1 20.127 0Zm11.079 21.142a1.437 1.437 0 0 1-2.034 0l-8.995-8.997a15.812 15.812 0 1 1 2.034-2.032l8.995 8.995a1.436 1.436 0 0 1 0 2.034Zm-21.142-8.204A12.938 12.938 0 1 0 7.187 20.125a12.952 12.952 0 0 0 12.938 12.938Z" fill="url(#glassmag_b)"/></g><defs><linearGradient id="glassmag_b" x1="18.167" y1="10.444" x2="42.231" y2="25.541" gradientUnits="userSpaceOnUse"><stop stop-color="#60C1FF"/><stop offset="1" stop-color="#4C93F3"/></linearGradient><clipPath id="glassmag_a"><path fill="#fff" d="M0 0h46v46H0z"/></clipPath></defs></svg>