<?xml version="1.0" encoding="UTF-8"?>
<svg id="Capa_1" xmlns="http://www.w3.org/2000/svg" version="1.1" viewBox="0 0 219.97 60.09">
  <!-- Generator: Adobe Illustrator 29.6.1, SVG Export Plug-In . SVG Version: 2.1.1 Build 9)  -->
  <defs>
    <style>
      .st0 {
        fill: #fff;
      }

      .st1 {
        fill: #034ea2;
      }
    </style>
  </defs>
  <g id="g8882">
    <path id="path10" class="st1" d="M197.42,14.31c2.47,14.13-36,32.63-85.92,41.33-49.92,8.69-92.38,4.28-94.84-9.85C14.2,31.65,52.67,13.16,102.59,4.46,152.5-4.24,194.96.18,197.42,14.31Z"/>
    <g id="g8872">
      <polygon id="polygon16" class="st0" points="150.44 35.28 150.18 20.59 154.81 20.59 154.81 39.11 148.15 39.11 143.53 23.91 143.43 23.91 143.69 39.11 139.08 39.11 139.08 20.59 146.03 20.59 150.33 35.28 150.44 35.28"/>
      <polygon id="polygon18" class="st0" points="66.23 22.33 63.66 39.3 58.61 39.3 62.08 20.59 70.4 20.59 73.86 39.3 68.82 39.3 66.33 22.33 66.23 22.33"/>
      <polygon id="polygon20" class="st0" points="85.62 39.3 82.49 22.48 82.39 22.48 82.28 39.3 77.59 39.3 78 20.59 85.64 20.59 87.95 34.9 88.05 34.9 90.36 20.59 97.99 20.59 98.4 39.3 93.72 39.3 93.6 22.48 93.5 22.48 90.37 39.3 85.62 39.3"/>
      <path id="path22" class="st0" d="M50.73,34.02c.18.45.13,1.04.04,1.39-.16.62-.58,1.26-1.82,1.26-1.17,0-1.88-.67-1.88-1.7v-1.81h-5.02v1.45c0,4.17,3.28,5.43,6.8,5.43s6.17-1.16,6.62-4.27c.23-1.62.06-2.67-.02-3.07-.79-3.92-7.89-5.09-8.42-7.28-.09-.38-.06-.77-.02-.99.13-.6.54-1.25,1.71-1.25,1.09,0,1.74.68,1.74,1.7v1.16h4.67v-1.31c0-4.08-3.66-4.71-6.31-4.71-3.33,0-6.05,1.1-6.55,4.15-.14.84-.16,1.59.04,2.53.82,3.82,7.46,4.93,8.43,7.35h0Z"/>
      <path id="path24" class="st0" d="M111.58,33.99c.18.45.13,1.02.04,1.37-.15.62-.57,1.24-1.81,1.24-1.16,0-1.86-.67-1.86-1.68v-1.8h-4.97v1.43c0,4.13,3.25,5.38,6.73,5.38s6.11-1.14,6.55-4.23c.23-1.6.07-2.65-.02-3.04-.79-3.88-7.82-5.04-8.34-7.21-.09-.37-.06-.77-.02-.97.13-.6.53-1.24,1.69-1.24,1.08,0,1.72.66,1.72,1.67v1.14h4.63v-1.3c0-4.03-3.63-4.66-6.25-4.66-3.29,0-5.99,1.09-6.48,4.11-.14.83-.15,1.56.04,2.5.81,3.78,7.39,4.88,8.34,7.28h0Z"/>
      <path id="path26" class="st0" d="M127.29,36.5c1.3,0,1.7-.9,1.79-1.36.04-.2.05-.47.04-.72v-13.85h4.73v13.42c0,.34-.02,1.05-.04,1.23-.33,3.49-3.09,4.63-6.53,4.63s-6.21-1.13-6.53-4.63c-.02-.18-.05-.88-.04-1.23v-13.42h4.73v13.85c0,.24,0,.51.04.72.1.46.5,1.36,1.8,1.36Z"/>
      <path id="path28" class="st0" d="M166.33,36.31c1.36,0,1.83-.86,1.92-1.36.03-.21.04-.48.04-.71v-2.72h-1.92v-2.73h6.63v5.02c0,.35-.01.61-.07,1.23-.31,3.4-3.26,4.62-6.58,4.62s-6.27-1.21-6.59-4.62c-.05-.62-.06-.88-.07-1.23v-7.88c0-.33.05-.92.08-1.23.42-3.5,3.25-4.62,6.57-4.62s6.22,1.12,6.57,4.62c.06.6.04,1.23.04,1.23v.62h-4.72v-1.05s0-.45-.06-.71c-.08-.41-.44-1.36-1.87-1.36s-1.76.9-1.86,1.36c-.06.25-.08.58-.08.88v8.56c0,.24,0,.5.05.71.08.5.55,1.36,1.91,1.36Z"/>
    </g>
  </g>
</svg>