<?xml version="1.0" encoding="UTF-8"?>
<svg id="Capa_1" xmlns="http://www.w3.org/2000/svg" version="1.1" viewBox="0 0 219.97 60.09">
  <!-- Generator: Adobe Illustrator 29.6.1, SVG Export Plug-In . SVG Version: 2.1.1 Build 9)  -->
  <defs>
    <style>
      .st0 {
        fill: #007db8;
      }
    </style>
  </defs>
  <g id="layer1">
    <g id="g3460">
      <path id="path3462" class="st0" d="M109.34,3.24c-7.37,0-14.05,2.99-18.88,7.83-4.84,4.83-7.82,11.51-7.82,18.88s2.99,14.05,7.82,18.88c4.83,4.83,11.51,7.83,18.88,7.83s14.05-3,18.88-7.83c4.83-4.83,7.82-11.5,7.82-18.88s-2.98-14.06-7.82-18.88c-4.83-4.84-11.51-7.83-18.88-7.83M109.34,0C125.88,0,139.28,13.41,139.28,29.95s-13.41,29.94-29.94,29.94-29.95-13.41-29.95-29.94S92.81,0,109.34,0"/>
    </g>
    <g id="g3464">
      <path id="path3466" class="st0" d="M95.18,29.7c0-1.75-1.16-2.74-2.8-2.74h-1v5.47h.97c1.52,0,2.83-.83,2.83-2.74M113.03,31.67l-7.39,5.82-6.76-5.32c-.97,2.34-3.33,3.97-6.04,3.97h-5.78v-12.88h5.78c3.03,0,5.22,1.93,6.04,3.98l6.76-5.31,2.5,1.97-6.19,4.87,1.19.93,6.19-4.86,2.51,1.96-6.19,4.87,1.19.93,6.2-4.87v-4.47h4.49v9.12h4.48v3.77h-8.97v-4.49ZM127.69,32.39h4.48v3.77h-8.98v-12.89h4.5v9.12Z"/>
    </g>
  </g>
</svg>