<?xml version="1.0" encoding="UTF-8"?>
<svg id="Capa_1" xmlns="http://www.w3.org/2000/svg" version="1.1" viewBox="0 0 211.46 60.09">
  <!-- Generator: Adobe Illustrator 29.6.1, SVG Export Plug-In . SVG Version: 2.1.1 Build 9)  -->
  <defs>
    <style>
      .st0 {
        fill: #6c6e71;
      }

      .st1 {
        fill: #d71820;
      }
    </style>
  </defs>
  <path id="path4413" class="st0" d="M164.85,18.13c-4.98-.17-10.36,2.7-12.92,8.09-1.58,3.04-2.79,6.43-3.6,9.76-.07.29-.14.59-.2.88-.08.47-.09,1.08-.04,1.7.2,2.62,2.52,5.79,6.36,5.97h4.55c4.98.17,10.36-2.7,12.91-8.09,1.58-3.05,2.79-6.44,3.6-9.76.07-.3.14-.59.2-.88.08-.47.09-1.08.04-1.7-.2-2.62-2.52-5.78-6.36-5.96h-4.54ZM79.48,18.37l2.04,25.9h4.08s-.02,0-.02,0h.24c.81-.03,1.54-.45,1.97-1.1h0l16.64-24.81h-4.3l-11.92,17.81-1.4-17.81h-7.32ZM107.4,18.37l-9.55,25.9h7.33l9.55-25.9s-7.33,0-7.33,0ZM124.61,18.37c-6.59.08-9.5,7.41-5.9,12.1,1.83,2.23,4.43,4.54,5.9,6.98.93,1.32-.06,3.52-1.85,3.54h-11.63l-1.2,3.28h14.72c5.77-.02,9.68-6.81,5.8-12.02-1.79-2.64-4.62-4.44-6.3-7.02-1-1.35,0-3.56,1.81-3.58h10.82l1.21-3.28h-13.39ZM143.07,18.37l-9.55,25.9h7.33l9.55-25.9h-7.33ZM182.65,18.37l-9.59,25.9h3.78l6.61-17.85.03.32,5.94,16.03c.36.84,1.17,1.45,2.13,1.5h3.45l9.59-25.9h-3.78l-6.48,17.51-6.9-17.51h-4.79ZM166.52,20.81c1.38.11,2.48,1.27,2.48,2.68h0c.01.35-.05.69-.18,1l-4.84,13.19c-.98,2.53-3.25,4.08-5.95,4.16h-.72c-1.38-.11-2.48-1.27-2.48-2.68h0c-.01-.35.05-.69.18-1l4.84-13.19c.98-2.53,3.25-4.08,5.95-4.16h.71,0Z"/>
  <path id="path4417" class="st1" d="M11.53,18.37L1.98,44.27h7.78l4.57-12.39h9.27l-4.57,12.39h6.08c1.03,0,1.91-.65,2.27-1.56,0-.01,0-.02.01-.02l8.97-24.33h-7.78l-3.68,9.97h-9.27l3.68-9.97h-7.78ZM41.31,18.37l-9.55,25.9h7.78l9.55-25.9h-7.78,0ZM54.39,18.37l-9.55,25.9h7.78l3.66-9.93,1.95-1.49,5.16,10.01h0s0,0,.01.01c.42.88,1.35,1.46,2.38,1.39-.02,0-.04.01-.06.01h6.61l-8.22-15.94,12.97-9.96h-5.82l-12.69,9.74,3.59-9.74h-7.78Z"/>
  <path id="path4457" class="st0" d="M210.33,20.66c0,1.44-1.13,2.57-2.61,2.57s-2.62-1.13-2.62-2.57,1.16-2.54,2.62-2.54,2.61,1.13,2.61,2.54M205.76,20.66c0,1.13.84,2.03,1.98,2.03s1.94-.9,1.94-2.02-.82-2.05-1.95-2.05-1.97.92-1.97,2.03M207.32,21.99h-.59v-2.54c.23-.05.56-.08.98-.08.48,0,.7.08.88.19.14.11.25.31.25.56,0,.28-.22.5-.53.59v.03c.25.09.39.28.47.62.08.39.12.54.19.64h-.63c-.08-.09-.12-.33-.2-.62-.05-.28-.2-.4-.53-.4h-.28v1.02h0ZM207.34,20.55h.28c.33,0,.59-.11.59-.37,0-.23-.17-.39-.54-.39-.15,0-.26.01-.33.03v.73h0Z"/>
</svg>