<?xml version="1.0" encoding="UTF-8"?>
<svg id="Capa_1" xmlns="http://www.w3.org/2000/svg" version="1.1" viewBox="0 0 219.97 60.09">
  <!-- Generator: Adobe Illustrator 29.6.1, SVG Export Plug-In . SVG Version: 2.1.1 Build 9)  -->
  <defs>
    <style>
      .st0 {
        fill: #21b799;
      }

      .st1 {
        fill: #8f8f8f;
      }

      .st2 {
        fill: #fff;
      }

      .st3 {
        fill: #714b67;
      }
    </style>
  </defs>
  <path class="st0" d="M171.17,58.56c0,.54-.44.98-.99.99h-66.95c-.54,0-.98-.44-.99-.99v-13.6c0-.54.44-.98.99-.99h66.98c.54,0,.98.44.99.99l-.03,13.6Z"/>
  <path class="st2" d="M109.68,52.14v2.76h-.9v-6.62h1.86c.37-.02.74.03,1.1.14.28.06.54.19.76.37.19.16.34.37.45.59.09.24.14.5.14.76,0,.22-.03.44-.11.65-.07.2-.17.38-.31.53-.15.16-.32.3-.51.42-.21.12-.44.2-.68.25.11.07.21.17.28.28l1.91,2.62h-.79c-.15.01-.29-.07-.37-.2l-1.72-2.36c-.04-.07-.1-.13-.17-.17-.09-.04-.18-.06-.28-.06l-.68.03h0ZM109.68,51.5h.93c.23,0,.46-.03.68-.08.18-.05.36-.14.51-.25.13-.12.24-.26.31-.42.07-.17.11-.35.11-.53.02-.35-.13-.68-.39-.9-.34-.23-.75-.33-1.15-.31h-.99v2.51h0Z"/>
  <path class="st2" d="M116.35,50.14c.27,0,.54.05.79.14.23.09.44.22.62.39.18.18.31.4.39.65.09.29.14.6.14.9,0,.09-.01.17-.03.25-.05.04-.11.06-.17.06h-3.1c0,.26.04.51.11.76.06.2.17.38.31.53.13.14.28.25.45.34.19.08.39.12.59.11.18,0,.36-.02.53-.08.13-.05.26-.1.39-.14.1-.05.19-.11.28-.17.06-.05.12-.08.2-.08.07,0,.13.03.17.08l.23.31c-.11.12-.23.22-.37.31-.14.09-.29.17-.45.23-.17.06-.33.11-.51.14-.17.02-.34.03-.51.03-.31,0-.61-.06-.9-.17-.27-.11-.5-.27-.7-.48-.21-.22-.37-.49-.45-.79-.12-.34-.17-.71-.17-1.07,0-.31.05-.61.14-.9.1-.27.24-.51.42-.73.19-.2.42-.36.68-.48.29-.09.6-.14.9-.14ZM116.38,50.76c-.34-.02-.68.1-.93.34-.24.26-.39.6-.42.96h2.53c0-.18-.03-.36-.08-.53-.05-.15-.13-.29-.23-.42-.1-.11-.23-.2-.37-.25-.16-.06-.33-.09-.51-.08Z"/>
  <path class="st2" d="M122.77,54.9h-.37c-.07,0-.13,0-.2-.03-.06-.03-.09-.1-.08-.17l-.08-.42c-.11.11-.25.2-.37.31-.12.09-.24.16-.37.23-.13.06-.28.11-.42.14-.16.03-.32.05-.48.06-.17,0-.34-.03-.51-.08-.15-.05-.29-.13-.42-.23-.12-.11-.21-.25-.28-.39-.07-.18-.11-.37-.11-.56,0-.19.05-.37.14-.53.12-.18.29-.34.48-.45.28-.16.58-.27.9-.34.45-.09.9-.12,1.35-.11v-.37c.02-.29-.06-.58-.23-.82-.17-.19-.42-.3-.68-.28-.17,0-.34.02-.51.08-.14.06-.25.11-.37.17-.09.04-.18.1-.25.17-.06.05-.14.08-.23.08-.05,0-.1-.02-.14-.06-.03-.03-.08-.06-.11-.11l-.14-.25c.49-.48,1.14-.76,1.83-.76.24,0,.48.05.7.14.2.08.37.2.51.37.15.16.26.35.31.56.08.23.12.48.11.73v2.93h0ZM120.66,54.39c.13,0,.27-.02.39-.06.12-.02.23-.06.34-.11.11-.06.21-.12.31-.2.08-.08.2-.17.28-.25v-.99c-.32,0-.64.02-.96.08-.22.04-.44.11-.65.2-.14.06-.27.16-.37.28-.08.11-.12.23-.11.37,0,.11.02.21.06.31.03.09.09.17.17.23.07.07.16.11.25.11.06,0,.17.03.28.03Z"/>
  <path class="st2" d="M127.3,54.9c-.11,0-.2-.06-.23-.17l-.08-.56c-.18.24-.41.44-.68.59-.27.15-.57.22-.87.23-.25,0-.5-.06-.73-.17-.22-.11-.41-.26-.56-.45-.17-.23-.29-.49-.37-.76-.08-.33-.12-.67-.11-1.01,0-.32.05-.65.14-.96.07-.28.21-.54.39-.76.17-.22.39-.4.65-.51.26-.12.55-.19.84-.2.25,0,.5.05.73.14.21.09.39.22.53.39v-2.59h.82v6.79h-.48ZM125.73,54.28c.25.01.5-.06.7-.2.22-.14.41-.32.56-.53v-2.25c-.13-.19-.3-.33-.51-.42-.19-.08-.39-.12-.59-.11-.4-.01-.77.16-1.01.48-.25.4-.36.86-.34,1.32,0,.27.02.53.08.79.05.19.12.37.23.53.09.13.22.24.37.31.16.06.33.09.51.08Z"/>
  <path class="st2" d="M130.54,56.28c-.02.06-.06.11-.11.14-.06.04-.13.06-.2.06h-.62l.84-1.86-1.91-4.39h.7c.06,0,.12.02.17.06.03.03.06.08.08.11l1.24,2.93c.03.06.06.14.08.2s.03.14.06.2c.03-.06.05-.13.06-.2.03-.06.06-.14.08-.2l1.21-2.93s.05-.08.08-.11c.06-.03.08-.06.14-.06h.65l-2.56,6.05Z"/>
  <path class="st2" d="M136.79,52.42v2.48h-.9v-6.62h1.94c.37,0,.74.05,1.1.14.29.07.55.22.76.42.21.17.36.4.45.65.2.55.19,1.15-.03,1.69-.1.25-.27.48-.48.65-.22.2-.48.34-.76.42-.35.11-.71.16-1.07.14l-1.01.03h0ZM136.79,51.72h1.07c.23,0,.46-.03.68-.11.18-.05.35-.15.48-.28.13-.12.24-.26.31-.42.07-.18.11-.37.11-.56.02-.37-.13-.73-.39-.99-.34-.26-.76-.39-1.18-.37h-1.07v2.73Z"/>
  <path class="st2" d="M144.5,54.9h-.37c-.07,0-.13,0-.2-.03-.06-.03-.09-.1-.08-.17l-.08-.42c-.11.11-.25.2-.37.31-.12.09-.24.16-.37.23-.13.07-.28.12-.42.14-.16.03-.32.05-.48.06-.17,0-.34-.03-.51-.08-.15-.05-.29-.13-.42-.23-.12-.11-.21-.25-.28-.39-.07-.18-.11-.37-.11-.56,0-.19.05-.37.14-.53.12-.18.29-.34.48-.45.28-.16.58-.27.9-.34.45-.09.9-.12,1.35-.11v-.37c.02-.29-.06-.58-.23-.82-.17-.19-.42-.3-.68-.28-.17,0-.34.02-.51.08-.14.06-.25.11-.37.17-.09.04-.18.1-.25.17-.06.05-.14.08-.23.08-.05,0-.1-.02-.14-.06-.03-.03-.08-.06-.11-.11l-.14-.25c.49-.48,1.14-.76,1.83-.76.24,0,.48.05.7.14.2.08.37.2.51.37.15.16.26.35.31.56.07.24.11.48.11.73v2.93h0ZM142.39,54.39c.13,0,.27-.02.39-.06.12-.02.23-.06.34-.11.11-.06.21-.12.31-.2.08-.08.2-.17.28-.25v-.99c-.32,0-.64.02-.96.08-.22.04-.44.11-.65.2-.14.06-.27.16-.37.28-.08.11-.12.23-.11.37,0,.11.02.21.06.31.03.09.09.17.17.23.07.07.16.1.25.11.06,0,.17.03.28.03Z"/>
  <path class="st2" d="M145.74,54.9v-4.67h.48c.07,0,.14.02.2.06.04.05.06.11.06.17l.06.73c.14-.3.34-.56.59-.76.23-.18.52-.28.82-.28.11,0,.23.02.34.06.1.02.2.06.28.11l-.11.62c-.03.08-.06.11-.14.11-.07,0-.13-.03-.2-.06-.12-.04-.24-.06-.37-.06-.26-.01-.51.08-.7.25-.23.19-.39.45-.48.73v2.98h-.82Z"/>
  <path class="st2" d="M150.9,54.96c-.31.02-.62-.1-.84-.31-.22-.25-.33-.57-.31-.9v-2.87h-.56s-.09-.02-.11-.06c-.04-.04-.06-.09-.06-.14v-.34l.76-.08.2-1.44s.02-.09.06-.11c.04-.04.09-.06.14-.06h.42v1.6h1.35v.59h-1.35v2.82c0,.16.04.32.14.45.09.1.23.15.37.14.08,0,.15,0,.23-.03l.17-.08s.08-.05.11-.08c.02-.02.05-.03.08-.03.06,0,.08.03.11.08l.25.39c-.15.14-.32.24-.51.31-.2.1-.42.15-.65.14Z"/>
  <path class="st2" d="M152.92,54.9v-4.67h.48c.11,0,.2.06.23.17l.06.51c.19-.22.42-.4.68-.53.27-.14.57-.21.87-.2.23,0,.46.03.68.11.19.07.36.2.48.37.14.17.24.36.31.56.07.24.11.48.11.73v2.98h-.82v-2.98c.02-.29-.07-.59-.25-.82-.19-.2-.46-.31-.73-.28-.24,0-.47.05-.68.17-.22.13-.42.29-.59.48v3.43l-.82-.03h0Z"/>
  <path class="st2" d="M159.88,50.14c.27,0,.54.05.79.14.23.09.44.22.62.39.18.18.31.4.39.65.09.29.14.6.14.9,0,.14,0,.23-.03.25-.05.04-.11.06-.17.06h-3.1c0,.26.04.51.11.76.06.2.17.38.31.53.13.14.28.25.45.34.19.08.39.12.59.11.18,0,.36-.02.53-.08.13-.05.26-.1.39-.14.1-.05.19-.11.28-.17.06-.05.12-.08.2-.08.07,0,.13.03.17.08l.23.31c-.11.12-.23.22-.37.31-.14.09-.29.17-.45.23-.17.06-.33.11-.51.14-.17.02-.34.03-.51.03-.31,0-.61-.06-.9-.17-.27-.11-.5-.27-.7-.48-.21-.22-.37-.49-.45-.79-.12-.34-.17-.71-.17-1.07,0-.31.05-.61.14-.9.1-.27.24-.51.42-.73.19-.2.42-.36.68-.48.29-.09.6-.14.9-.14ZM159.9,50.76c-.34-.02-.68.1-.93.34-.24.26-.39.6-.42.96h2.53c0-.18-.03-.36-.08-.53-.05-.15-.13-.29-.23-.42-.1-.11-.23-.2-.37-.25-.16-.06-.33-.09-.51-.08h0Z"/>
  <path class="st2" d="M162.86,54.9v-4.67h.48c.07,0,.14.02.2.06.04.05.06.11.06.17l.06.73c.14-.3.34-.56.59-.76.23-.18.52-.28.82-.28.11,0,.23.02.34.06.1.02.2.06.28.11l-.11.62c-.03.08-.06.11-.14.11-.07,0-.13-.03-.2-.06-.12-.04-.24-.06-.37-.06-.26-.01-.51.08-.7.25-.23.19-.39.45-.48.73v2.98h-.82Z"/>
  <path class="st1" d="M157.57,11.15c-7.77,0-14.08,6.3-14.08,14.08s6.3,14.08,14.08,14.08,14.08-6.3,14.08-14.08-6.3-14.08-14.08-14.08h0ZM157.57,33.67c-4.66,0-8.45-3.78-8.45-8.45s3.78-8.45,8.45-8.45,8.45,3.78,8.45,8.45h0c0,4.66-3.78,8.45-8.45,8.45Z"/>
  <path class="st1" d="M128.01,11.15c-7.77,0-14.08,6.3-14.08,14.08s6.3,14.08,14.08,14.08,14.08-6.3,14.08-14.08-6.3-14.08-14.08-14.08h0ZM128.01,33.67c-4.66,0-8.45-3.78-8.45-8.45s3.78-8.45,8.45-8.45,8.45,3.78,8.45,8.45h0c0,4.66-3.78,8.45-8.45,8.45Z"/>
  <path class="st3" d="M68.88,11.15c-7.77,0-14.08,6.3-14.08,14.08s6.3,14.08,14.08,14.08,14.08-6.3,14.08-14.08-6.3-14.08-14.08-14.08h0ZM68.88,33.67c-4.66,0-8.45-3.78-8.45-8.45s3.78-8.45,8.45-8.45,8.45,3.78,8.45,8.45h0c0,4.66-3.78,8.45-8.45,8.45Z"/>
  <path class="st1" d="M109.71,2.68c-1.55,0-2.82,1.26-2.82,2.82v8.45c-6.22-4.66-15.04-3.4-19.71,2.82-4.66,6.22-3.4,15.04,2.82,19.71,6.22,4.66,15.04,3.4,19.71-2.82,1.82-2.43,2.81-5.38,2.82-8.42h0V5.49c0-1.55-1.26-2.82-2.82-2.82ZM98.44,33.65c-4.66,0-8.45-3.78-8.45-8.45s3.78-8.45,8.45-8.45,8.45,3.78,8.45,8.45-3.78,8.45-8.45,8.45h0Z"/>
</svg>