<?xml version="1.0" encoding="UTF-8"?>
<svg id="Capa_1" xmlns="http://www.w3.org/2000/svg" version="1.1" viewBox="0 0 219.97 60.09">
  <!-- Generator: Adobe Illustrator 29.6.1, SVG Export Plug-In . SVG Version: 2.1.1 Build 9)  -->
  <g id="g853">
    <g id="letters">
      <path id="letter-s" d="M17.73,36.48h3.95c.14,1.27.56,2.12,1.13,2.54.56.56,1.55.71,2.82.71,2.4,0,3.53-.99,3.53-2.82,0-.85-.28-1.55-.71-1.98s-1.27-.71-2.26-.99l-2.12-.28c-3.95-.71-5.93-2.68-5.93-6.07,0-1.98.71-3.67,1.98-4.8,1.41-1.13,3.11-1.84,5.36-1.84,2.12,0,3.81.56,5.08,1.69s1.98,2.82,2.12,4.8h-3.95c0-1.13-.42-1.84-.99-2.26s-1.41-.71-2.4-.71c-1.13,0-1.84.28-2.4.71s-.85,1.13-.85,2.12c0,.71.28,1.41.71,1.84s1.27.71,2.26.99l2.26.42c3.81.71,5.65,2.68,5.65,6.21,0,2.26-.71,3.95-2.12,5.08s-3.25,1.69-5.65,1.69-4.23-.56-5.51-1.69c-1.13-1.41-1.84-3.11-1.98-5.36h0Z"/>
      <path id="letter-t" d="M52.31,24.9v18.35h-4.23v-18.35h-5.65v-3.67h15.39v3.67h-5.51Z"/>
      <path id="letter-a" d="M69.82,38.88l-1.27,4.23h-4.38l7.76-21.88h3.39l7.76,21.88h-4.38l-1.27-4.23h-7.62ZM73.63,27.02l-2.68,8.47h5.36l-2.68-8.47Z"/>
      <path id="letter-r" d="M97.2,34.36v8.89h-4.09v-21.88h8.33c2.12,0,3.81.56,5.08,1.69s1.98,2.82,1.98,4.8c0,1.41-.28,2.68-.99,3.67s-1.69,1.69-2.82,2.26l4.8,9.6h-4.8l-4.09-8.89h-3.39v-.14ZM101.16,30.83c.99,0,1.69-.28,2.26-.85s.85-1.27.85-2.26c0-.85-.28-1.55-.85-2.12s-1.27-.85-2.26-.85h-3.95v5.93h3.95v.14Z"/>
      <path id="letter-l" d="M123.88,21.23v18.35h9.6v3.67h-13.69v-21.88h4.09v-.14Z"/>
      <path id="letter-i" d="M148.45,21.23v22.02h-4.09v-21.88h4.09v-.14Z"/>
      <path id="letter-n" d="M176.82,43.25h-4.09l-8.05-13.69v13.69h-4.38v-21.88h4.09l8.05,13.69v-13.69h4.09v21.88h.28Z"/>
      <path id="letter-k" d="M192.63,37.04v6.07h-4.09v-21.88h4.09v10.16l7.62-10.16h4.94l-7.06,8.75,7.62,13.13h-4.8l-5.36-9.74-2.96,3.67Z"/>
    </g>
  </g>
</svg>