<svg width="46" height="46" viewBox="0 0 46 46" fill="none" xmlns="http://www.w3.org/2000/svg">
<g clip-path="url(#smileySvg_clip0_60_10118)">
<path d="M23 4.3125C19.304 4.3125 15.6909 5.4085 12.6178 7.46191C9.54465 9.51532 7.14942 12.4339 5.73501 15.8486C4.3206 19.2633 3.95052 23.0207 4.67158 26.6458C5.39264 30.2708 7.17246 33.6006 9.78595 36.2141C12.3994 38.8276 15.7292 40.6074 19.3543 41.3284C22.9793 42.0495 26.7367 41.6794 30.1514 40.265C33.5661 38.8506 36.4847 36.4554 38.5381 33.3822C40.5915 30.3091 41.6875 26.696 41.6875 23C41.6823 18.0454 39.7117 13.2952 36.2083 9.79172C32.7048 6.28827 27.9546 4.31773 23 4.3125ZM16.5313 17.25C16.9577 17.25 17.3746 17.3765 17.7292 17.6134C18.0838 17.8503 18.3602 18.1871 18.5234 18.5811C18.6866 18.9751 18.7293 19.4086 18.6461 19.8269C18.5629 20.2452 18.3575 20.6294 18.056 20.931C17.7544 21.2325 17.3702 21.4379 16.9519 21.5211C16.5337 21.6043 16.1001 21.5616 15.7061 21.3984C15.3121 21.2352 14.9753 20.9588 14.7384 20.6042C14.5015 20.2496 14.375 19.8327 14.375 19.4062C14.375 18.8344 14.6022 18.2859 15.0066 17.8816C15.4109 17.4772 15.9594 17.25 16.5313 17.25ZM31.4309 28.0312C29.582 31.2279 26.5093 33.0625 23 33.0625C19.4907 33.0625 16.4181 31.2297 14.5691 28.0312C14.4651 27.8676 14.3952 27.6847 14.3638 27.4934C14.3323 27.3021 14.3399 27.1064 14.386 26.9181C14.4321 26.7298 14.5158 26.5527 14.6322 26.3976C14.7485 26.2425 14.895 26.1125 15.0628 26.0155C15.2307 25.9185 15.4164 25.8564 15.6089 25.8331C15.8013 25.8097 15.9965 25.8255 16.1827 25.8795C16.3689 25.9335 16.5423 26.0246 16.6923 26.1474C16.8424 26.2701 16.9661 26.422 17.0559 26.5938C18.3982 28.9135 20.5077 30.1875 23 30.1875C25.4923 30.1875 27.6018 28.9117 28.9441 26.5938C29.0339 26.422 29.1576 26.2701 29.3077 26.1474C29.4578 26.0246 29.6311 25.9335 29.8173 25.8795C30.0035 25.8255 30.1987 25.8097 30.3912 25.8331C30.5836 25.8564 30.7694 25.9185 30.9372 26.0155C31.1051 26.1125 31.2515 26.2425 31.3679 26.3976C31.4842 26.5527 31.5679 26.7298 31.614 26.9181C31.6602 27.1064 31.6677 27.3021 31.6363 27.4934C31.6048 27.6847 31.535 27.8676 31.4309 28.0312ZM29.4688 21.5625C29.0423 21.5625 28.6254 21.436 28.2708 21.1991C27.9162 20.9622 27.6398 20.6254 27.4766 20.2314C27.3134 19.8374 27.2707 19.4039 27.3539 18.9856C27.4371 18.5673 27.6425 18.1831 27.9441 17.8816C28.2456 17.58 28.6298 17.3746 29.0481 17.2914C29.4664 17.2082 29.8999 17.2509 30.2939 17.4141C30.6879 17.5773 31.0247 17.8537 31.2616 18.2083C31.4985 18.5629 31.625 18.9798 31.625 19.4062C31.625 19.9781 31.3978 20.5266 30.9935 20.931C30.5891 21.3353 30.0406 21.5625 29.4688 21.5625Z" fill="url(#smileySvg_paint0_linear_60_10118)"/>
</g>
<defs>
<linearGradient id="smileySvg_paint0_linear_60_10118" x1="18.167" y1="10.4527" x2="42.2256" y2="25.5515" gradientUnits="userSpaceOnUse">
<stop stop-color="#7FEAB8"/>
<stop offset="1" stop-color="#4DBC87"/>
</linearGradient>
<clipPath id="smileySvg_clip0_60_10118">
<rect width="46" height="46" fill="white"/>
</clipPath>
</defs>
</svg>
