<svg width="78" height="79" viewBox="0 0 78 79" fill="none" xmlns="http://www.w3.org/2000/svg">
<circle cx="39.2145" cy="39.4616" r="37.4942" fill="white" stroke="url(#paint0_linear_2077_1855)" stroke-width="2.55"/>
<mask id="mask0_2077_1855" style="mask-type:alpha" maskUnits="userSpaceOnUse" x="21" y="21" width="36" height="37">
<g clip-path="url(#clip0_2077_1855)">
<path d="M54.2358 26.3687C49.7829 23.3336 44.5989 21.7385 39.2155 21.7385C33.8321 21.7385 28.6481 23.3336 24.1952 26.3687C23.885 26.5681 23.7078 26.9004 23.7078 27.277V40.5693C23.6413 49.1871 27.8949 53.8395 38.9053 57.1404C38.994 57.1625 39.1047 57.1847 39.2155 57.1847C39.3263 57.1847 39.437 57.1625 39.5256 57.1404C50.6026 53.8173 54.7232 49.3201 54.7232 40.5693V27.277C54.7232 26.9004 54.546 26.5681 54.2358 26.3687ZM40.3232 46.0191V47.2155C40.3232 47.8269 39.8269 48.3231 39.2155 48.3231C38.604 48.3231 38.1078 47.8269 38.1078 47.2155V46.0147C36.9735 45.8286 35.9345 45.3656 35.1569 44.6766C34.6983 44.269 34.6584 43.5711 35.0639 43.1126C35.4693 42.654 36.1693 42.6163 36.6279 43.0195C37.2527 43.5734 38.1964 43.8924 39.2155 43.8924C41.0166 43.8924 42.5386 42.8777 42.5386 41.677C42.5386 40.4762 41.0166 39.4616 39.2155 39.4616C36.1627 39.4616 33.677 37.4744 33.677 35.0308C33.677 32.8908 35.5823 31.1007 38.1078 30.6887V29.4924C38.1078 28.8809 38.604 28.3847 39.2155 28.3847C39.8269 28.3847 40.3232 28.8809 40.3232 29.4924V30.6931C41.4575 30.8792 42.4965 31.3422 43.2741 32.0312C43.7304 32.4388 43.7748 33.1389 43.3671 33.5953C42.9595 34.0516 42.2616 34.0915 41.8031 33.6883C41.1783 33.1345 40.2346 32.8154 39.2155 32.8154C37.4144 32.8154 35.8924 33.8301 35.8924 35.0308C35.8924 36.2316 37.4144 37.2462 39.2155 37.2462C42.2705 37.2462 44.754 39.2334 44.754 41.677C44.754 43.817 42.8487 45.6071 40.3232 46.0191Z" fill="black"/>
</g>
</mask>
<g mask="url(#mask0_2077_1855)">
</g>
<g clip-path="url(#clip1_2077_1855)">
<path d="M56.957 51.1289C55.2024 51.1289 53.7205 52.259 53.1623 53.8242H49.4291L44.4333 48.8285C44.1806 48.5757 43.7486 48.4336 43.3906 48.4336H39.3477V40.3477H33.8206C33.1945 43.4195 30.4725 45.7383 27.2188 45.7383C26.4739 45.7383 25.8711 45.1355 25.8711 44.3906C25.8711 43.6457 26.4739 43.043 27.2188 43.043C29.4481 43.043 31.2617 41.2294 31.2617 39C31.2617 36.7706 29.4481 34.957 27.2188 34.957C26.4739 34.957 25.8711 34.3543 25.8711 33.6094C25.8711 32.8645 26.4739 32.2617 27.2188 32.2617C30.4725 32.2617 33.1945 34.5805 33.8206 37.6523H39.3477V29.5664H46.1758C46.6865 29.5664 47.1523 29.2782 47.3813 28.8215L49.7041 24.1758H53.1623C53.7205 25.741 55.2024 26.8711 56.957 26.8711C59.1864 26.8711 61 25.0575 61 22.8281C61 20.5987 59.1864 18.6953 56.957 18.6953C55.2024 18.6953 53.7205 19.9152 53.1623 21.4805H48.8711C48.3604 21.4805 47.8946 21.7687 47.6656 22.2254L45.3428 26.8711H39.3477V22.8281C39.3477 19.1128 36.3247 16 32.6094 16C29.3942 16 26.6989 18.3522 26.0396 21.4818C21.5662 21.3923 17.7852 25.0509 17.7852 29.5664C17.7852 30.7969 18.0668 31.988 18.6104 33.0842C16.4731 34.2332 15 36.4678 15 39C15 41.5322 16.4731 43.7668 18.6104 44.9158C18.0668 46.012 17.7852 47.2031 17.7852 48.4336C17.7852 52.8924 21.4122 56.5195 25.8711 56.5195C25.9158 56.5195 25.9606 56.5195 26.0067 56.5182C26.6318 59.5912 29.3547 62 32.6094 62C36.3247 62 39.3477 58.8872 39.3477 55.1719V51.1289H42.8326L47.9182 56.1247C48.1709 56.3774 48.5132 56.5195 48.8711 56.5195H53.1623C53.7205 58.0848 55.2024 59.2148 56.957 59.2148C59.1864 59.2148 61 57.4013 61 55.1719C61 52.9425 59.1864 51.1289 56.957 51.1289Z" fill="url(#paint1_linear_2077_1855)"/>
<path d="M56.957 34.957C55.2024 34.957 53.7205 36.0871 53.1623 37.6523H39.3477V40.3477H53.1623C53.7205 41.9129 55.2024 43.043 56.957 43.043C59.1864 43.043 61 41.2294 61 39C61 36.7706 59.1864 34.957 56.957 34.957Z" fill="url(#paint2_linear_2077_1855)"/>
</g>
<defs>
<linearGradient id="paint0_linear_2077_1855" x1="29.188" y1="13.4308" x2="79.1001" y2="44.755" gradientUnits="userSpaceOnUse">
<stop stop-color="#7FEAB8"/>
<stop offset="1" stop-color="#4DBC87"/>
</linearGradient>
<linearGradient id="paint1_linear_2077_1855" x1="32.0517" y1="23.5571" x2="61.6623" y2="42.1403" gradientUnits="userSpaceOnUse">
<stop stop-color="#7FEAB8"/>
<stop offset="1" stop-color="#4DBC87"/>
</linearGradient>
<linearGradient id="paint2_linear_2077_1855" x1="47.374" y1="36.2854" x2="52.4541" y2="44.8227" gradientUnits="userSpaceOnUse">
<stop stop-color="#7FEAB8"/>
<stop offset="1" stop-color="#4DBC87"/>
</linearGradient>
<clipPath id="clip0_2077_1855">
<rect width="35.4462" height="35.4462" fill="white" transform="translate(21.4922 21.7385)"/>
</clipPath>
<clipPath id="clip1_2077_1855">
<rect width="46" height="46" fill="white" transform="translate(15 16)"/>
</clipPath>
</defs>
</svg>
