<svg width="78" height="78" viewBox="0 0 78 78" fill="none" xmlns="http://www.w3.org/2000/svg">
<rect x="1.5" y="1.5" width="75" height="75" rx="37.5" fill="white"/>
<rect x="1.5" y="1.5" width="75" height="75" rx="37.5" stroke="url(#paint0_linear_2090_162)" stroke-width="3"/>
<path d="M25.4946 50.0555H32.7135V58.7947H25.4946V50.0555ZM53.9047 22.8489L45.8572 34.3651H49.6064C49.9873 34.3651 50.2952 34.6741 50.2952 35.0539V58.9621H57.5171V35.0538C57.5171 34.674 57.8251 34.365 58.2059 34.365H61.9551L53.9047 22.8489ZM41.0433 40.2181C40.0849 41.6232 38.9031 42.8356 37.5254 43.8256V58.962H44.7443V40.1089H41.1033C41.0876 40.1473 41.0669 40.1837 41.0433 40.2181ZM36.7697 42.6723L34.2368 41.4669C34.0478 41.3773 33.8284 41.3783 33.6405 41.4699C33.2842 41.6421 32.9073 41.7985 32.5216 41.9324C32.3238 42.0003 32.1674 42.1557 32.0976 42.3526L31.1618 44.9967C29.8028 45.2102 28.4143 45.2112 27.0475 44.9967L26.1107 42.3526C26.0408 42.1557 25.8854 42.0003 25.6876 41.9324C25.3019 41.7985 24.925 41.6421 24.5688 41.4699C24.3798 41.3783 24.1604 41.3773 23.9715 41.4669L21.4396 42.6723C20.3198 41.8595 19.3436 40.8834 18.5308 39.7626L19.7372 37.2335C19.8278 37.0436 19.8268 36.8232 19.7343 36.6343C19.561 36.28 19.4056 35.9031 19.2698 35.5145C19.2019 35.3167 19.0464 35.1612 18.8496 35.0913L16.2073 34.1545C16.099 33.4774 16.0449 32.7876 16.0449 32.0978C16.0449 31.41 16.099 30.7192 16.2073 30.0402L18.8494 29.1044C19.0462 29.0335 19.2017 28.8781 19.2696 28.6802C19.3995 28.3073 19.5559 27.9314 19.7351 27.5614C19.8266 27.3735 19.8275 27.1531 19.7371 26.9641L18.5296 24.4322C19.3434 23.3124 20.3186 22.3363 21.4394 21.5235L23.9713 22.7309C24.1602 22.8205 24.3796 22.8205 24.5686 22.7289C24.9386 22.5489 25.3145 22.3923 25.6874 22.2634C25.8852 22.1945 26.0407 22.0401 26.1106 21.8422L27.0474 19.2001C28.4073 18.9836 29.8095 18.9846 31.1607 19.2001L32.0985 21.8422C32.1684 22.04 32.3238 22.1945 32.5216 22.2634C32.8946 22.3923 33.2705 22.5488 33.6405 22.7289C33.8284 22.8205 34.0488 22.8205 34.2377 22.7309L36.7696 21.5235C37.8894 22.3363 38.8656 23.3124 39.6784 24.4322L38.474 26.9651C38.3834 27.1541 38.3844 27.3735 38.4759 27.5614C38.6492 27.9176 38.8046 28.2945 38.9385 28.6802C39.0074 28.8781 39.1618 29.0345 39.3596 29.1044L42.0028 30.0402C42.11 30.7231 42.1641 31.4129 42.1641 32.0978C42.1641 32.7837 42.11 33.4735 42.0028 34.1544L39.3596 35.0912C39.1618 35.1611 39.0074 35.3165 38.9385 35.5144C38.8047 35.9011 38.6492 36.277 38.4759 36.6332C38.3844 36.8212 38.3835 37.0415 38.474 37.2305L39.6784 39.7624C38.8657 40.8834 37.8895 41.8595 36.7697 42.6723ZM36.6102 32.0978C36.6102 27.959 33.2439 24.5915 29.104 24.5915C24.9651 24.5915 21.5977 27.9589 21.5977 32.0978C21.5977 36.2367 24.9651 39.6041 29.104 39.6041C33.2439 39.6041 36.6102 36.2367 36.6102 32.0978ZM35.7433 32.0978C35.7433 35.7584 32.7647 38.7361 29.1041 38.7361C25.4435 38.7361 22.4658 35.7584 22.4658 32.0978C22.4658 28.4372 25.4435 25.4585 29.1041 25.4585C32.7647 25.4585 35.7433 28.4372 35.7433 32.0978ZM31.5897 32.0939L29.7938 31.5783V28.3596C29.7938 27.9797 29.4848 27.6708 29.104 27.6708C28.7241 27.6708 28.4151 27.9797 28.4151 28.3596V32.0979C28.4151 32.4049 28.6188 32.6755 28.9141 32.7601L31.2098 33.4184C31.2738 33.4361 31.3378 33.445 31.4007 33.445C31.6999 33.445 31.9754 33.2482 32.062 32.9461C32.1674 32.58 31.9558 32.1983 31.5897 32.0939Z" fill="black"/>
<path d="M25.4946 50.0555H32.7135V58.7947H25.4946V50.0555ZM53.9047 22.8489L45.8572 34.3651H49.6064C49.9873 34.3651 50.2952 34.6741 50.2952 35.0539V58.9621H57.5171V35.0538C57.5171 34.674 57.8251 34.365 58.2059 34.365H61.9551L53.9047 22.8489ZM41.0433 40.2181C40.0849 41.6232 38.9031 42.8356 37.5254 43.8256V58.962H44.7443V40.1089H41.1033C41.0876 40.1473 41.0669 40.1837 41.0433 40.2181ZM36.7697 42.6723L34.2368 41.4669C34.0478 41.3773 33.8284 41.3783 33.6405 41.4699C33.2842 41.6421 32.9073 41.7985 32.5216 41.9324C32.3238 42.0003 32.1674 42.1557 32.0976 42.3526L31.1618 44.9967C29.8028 45.2102 28.4143 45.2112 27.0475 44.9967L26.1107 42.3526C26.0408 42.1557 25.8854 42.0003 25.6876 41.9324C25.3019 41.7985 24.925 41.6421 24.5688 41.4699C24.3798 41.3783 24.1604 41.3773 23.9715 41.4669L21.4396 42.6723C20.3198 41.8595 19.3436 40.8834 18.5308 39.7626L19.7372 37.2335C19.8278 37.0436 19.8268 36.8232 19.7343 36.6343C19.561 36.28 19.4056 35.9031 19.2698 35.5145C19.2019 35.3167 19.0464 35.1612 18.8496 35.0913L16.2073 34.1545C16.099 33.4774 16.0449 32.7876 16.0449 32.0978C16.0449 31.41 16.099 30.7192 16.2073 30.0402L18.8494 29.1044C19.0462 29.0335 19.2017 28.8781 19.2696 28.6802C19.3995 28.3073 19.5559 27.9314 19.7351 27.5614C19.8266 27.3735 19.8275 27.1531 19.7371 26.9641L18.5296 24.4322C19.3434 23.3124 20.3186 22.3363 21.4394 21.5235L23.9713 22.7309C24.1602 22.8205 24.3796 22.8205 24.5686 22.7289C24.9386 22.5489 25.3145 22.3923 25.6874 22.2634C25.8852 22.1945 26.0407 22.0401 26.1106 21.8422L27.0474 19.2001C28.4073 18.9836 29.8095 18.9846 31.1607 19.2001L32.0985 21.8422C32.1684 22.04 32.3238 22.1945 32.5216 22.2634C32.8946 22.3923 33.2705 22.5488 33.6405 22.7289C33.8284 22.8205 34.0488 22.8205 34.2377 22.7309L36.7696 21.5235C37.8894 22.3363 38.8656 23.3124 39.6784 24.4322L38.474 26.9651C38.3834 27.1541 38.3844 27.3735 38.4759 27.5614C38.6492 27.9176 38.8046 28.2945 38.9385 28.6802C39.0074 28.8781 39.1618 29.0345 39.3596 29.1044L42.0028 30.0402C42.11 30.7231 42.1641 31.4129 42.1641 32.0978C42.1641 32.7837 42.11 33.4735 42.0028 34.1544L39.3596 35.0912C39.1618 35.1611 39.0074 35.3165 38.9385 35.5144C38.8047 35.9011 38.6492 36.277 38.4759 36.6332C38.3844 36.8212 38.3835 37.0415 38.474 37.2305L39.6784 39.7624C38.8657 40.8834 37.8895 41.8595 36.7697 42.6723ZM36.6102 32.0978C36.6102 27.959 33.2439 24.5915 29.104 24.5915C24.9651 24.5915 21.5977 27.9589 21.5977 32.0978C21.5977 36.2367 24.9651 39.6041 29.104 39.6041C33.2439 39.6041 36.6102 36.2367 36.6102 32.0978ZM35.7433 32.0978C35.7433 35.7584 32.7647 38.7361 29.1041 38.7361C25.4435 38.7361 22.4658 35.7584 22.4658 32.0978C22.4658 28.4372 25.4435 25.4585 29.1041 25.4585C32.7647 25.4585 35.7433 28.4372 35.7433 32.0978ZM31.5897 32.0939L29.7938 31.5783V28.3596C29.7938 27.9797 29.4848 27.6708 29.104 27.6708C28.7241 27.6708 28.4151 27.9797 28.4151 28.3596V32.0979C28.4151 32.4049 28.6188 32.6755 28.9141 32.7601L31.2098 33.4184C31.2738 33.4361 31.3378 33.445 31.4007 33.445C31.6999 33.445 31.9754 33.2482 32.062 32.9461C32.1674 32.58 31.9558 32.1983 31.5897 32.0939Z" fill="url(#paint1_linear_2090_162)"/>
<defs>
<linearGradient id="paint0_linear_2090_162" x1="28.9138" y1="12.8143" x2="79.123" y2="44.3249" gradientUnits="userSpaceOnUse">
<stop stop-color="#60C1FF"/>
<stop offset="1" stop-color="#4C93F3"/>
</linearGradient>
<linearGradient id="paint1_linear_2090_162" x1="33.0633" y1="25.597" x2="60.1489" y2="45.1443" gradientUnits="userSpaceOnUse">
<stop stop-color="#60C1FF"/>
<stop offset="1" stop-color="#4C93F3"/>
</linearGradient>
</defs>
</svg>
