<svg width="78" height="78" viewBox="0 0 78 78" fill="none" xmlns="http://www.w3.org/2000/svg">
<circle cx="39" cy="39" r="37.5" fill="white" stroke="url(#paint0_linear_2077_1837)" stroke-width="3"/>
<g clip-path="url(#clip0_2077_1837)">
<path fill-rule="evenodd" clip-rule="evenodd" d="M41.3774 34.7164L50.1045 25.9894L49.58 24.032L54.3566 19.2554C54.6129 18.9993 55.0468 19.1159 55.141 19.4655L55.8586 22.144L58.537 22.8616C58.8867 22.9553 59.0029 23.3898 58.747 23.6459L53.9704 28.4224L52.0087 27.8968L43.2834 36.6223C42.8386 35.823 42.1768 35.1611 41.3774 34.7164ZM38.9998 34.1284C36.3093 34.1284 34.1284 36.3094 34.1284 39C34.1284 41.6904 36.3092 43.8716 38.9998 43.8716C41.6905 43.8716 43.8714 41.6905 43.8714 39C43.8714 38.1446 43.6509 37.3408 43.2634 36.6421L39.9528 39.9529C39.4286 40.477 38.5711 40.477 38.0469 39.9529C37.5228 39.4287 37.5228 38.5712 38.0468 38.047L41.3577 34.7363C40.659 34.3491 39.8553 34.1284 38.9998 34.1284ZM38.9998 16.9883C26.8432 16.9883 16.9883 26.8432 16.9883 39C16.9883 51.1567 26.8432 61.0117 38.9998 61.0117C51.1567 61.0117 61.0115 51.1567 61.0115 39C61.0115 34.6312 59.7388 30.5596 57.5439 27.1359L54.4537 30.2261L52.5608 29.7189C54.3717 32.3598 55.4316 35.5561 55.4316 39C55.4316 48.0748 48.0746 55.4316 38.9998 55.4316C29.9251 55.4316 22.5682 48.0748 22.5682 39C22.5682 29.9252 29.9251 22.5683 38.9998 22.5683C42.4448 22.5683 45.6418 23.6286 48.2832 25.4405L47.7762 23.5488L50.867 20.458C47.4427 18.2619 43.3701 16.9883 38.9998 16.9883ZM37.2007 28.2188H40.799V30.7063C41.4013 30.8363 41.9795 31.0301 42.5265 31.2804L47.1681 26.6389C44.8265 25.0885 42.0187 24.1855 38.9999 24.1855C30.818 24.1855 24.1855 30.818 24.1855 39C24.1855 47.182 30.8179 53.8144 38.9999 53.8144C47.1819 53.8144 53.8144 47.1819 53.8144 39C53.8144 35.9812 52.9114 33.1734 51.3609 30.8318L46.7196 35.4733C46.9698 36.0204 47.1635 36.5987 47.2934 37.2009H49.7812V40.7992H47.2934C47.0756 41.8086 46.6783 42.7514 46.1363 43.5921L47.8956 45.3514L45.3512 47.8956L43.5919 46.1364C42.7514 46.6785 41.8083 47.0756 40.799 47.2937V49.7812H37.2007V47.2937C36.1914 47.0757 35.2485 46.6785 34.4078 46.1365L32.6485 47.8957L30.1041 45.3514L31.8634 43.5921C31.3216 42.7514 30.9243 41.8085 30.7063 40.7992H28.2188V37.2009H30.7063C30.9243 36.1914 31.3216 35.2487 31.8634 34.408L30.1041 32.6487L32.6485 30.1044L34.4078 31.8636C35.2483 31.3216 36.1914 30.9245 37.2007 30.7064V28.2188Z" fill="url(#paint1_linear_2077_1837)"/>
</g>
<defs>
<linearGradient id="paint0_linear_2077_1837" x1="28.9138" y1="12.8143" x2="79.123" y2="44.3249" gradientUnits="userSpaceOnUse">
<stop stop-color="#F4C553"/>
<stop offset="1" stop-color="#E69940"/>
</linearGradient>
<linearGradient id="paint1_linear_2077_1837" x1="33.3072" y1="24.2207" x2="61.6454" y2="42.0053" gradientUnits="userSpaceOnUse">
<stop stop-color="#F4C553"/>
<stop offset="1" stop-color="#E69940"/>
</linearGradient>
<clipPath id="clip0_2077_1837">
<rect width="46" height="46" fill="white" transform="translate(16 16)"/>
</clipPath>
</defs>
</svg>
